<?xml version="1.0"?>
<svg width="512" height="512" xmlns="http://www.w3.org/2000/svg" xmlns:svg="http://www.w3.org/2000/svg">
 <title>ionicons-v5-h</title>
  <path d="m392.445769,42.919127l-350.771831,0l0,382.041108l214.275836,0l30.837419,29.768643l-0.793049,0.794646l-244.320206,0c-16.844673,0 -30.501898,-13.684712 -30.501898,-30.563289l0,-382.041108c0,-16.878576 13.657225,-30.563289 30.501898,-30.563289l350.771831,0c16.844673,0 30.501898,13.684712 30.501898,30.563289l0,223.807322l-30.501898,-29.172659l0,-194.634663zm83.346437,438.797135c-13.763982,13.218622 -28.953927,19.919623 -45.158061,19.919623c-25.362328,0 -43.86173,-16.412486 -48.894543,-21.440147c-7.137444,-7.06012 -209.304027,-209.335605 -209.304027,-209.335605c-1.586099,-1.619854 -2.745171,-3.598827 -3.339958,-5.799384c-5.475091,-20.271101 -32.919174,-110.31055 -33.193691,-111.204526c-1.418338,-4.615057 -0.152509,-9.642718 3.240827,-12.997038c2.432526,-2.445063 5.680979,-3.744003 9.013311,-3.744003c1.311582,0 2.630789,0.191021 3.927119,0.595984c0.930308,0.313274 93.648453,30.356986 108.907028,34.918557c2.013125,0.595984 3.835614,1.688622 5.345458,3.1633c9.630974,9.520464 195.456165,192.831429 210.493601,208.395784c15.548343,16.07629 23.280574,32.786768 22.98318,49.711189c-0.282143,16.718119 -8.395648,32.80969 -24.020245,47.816265zm-20.870924,-76.255405c-8.487153,-8.771664 -74.943164,-74.574424 -197.522668,-195.574484l-9.379334,-9.268317c-14.05375,-4.355269 -47.704969,-15.189954 -73.143552,-23.411479c8.18976,27.101996 18.018996,59.842919 22.403644,75.330866c26.193505,26.20802 199.398535,199.494226 205.97932,206.004206c1.28108,1.283658 12.970932,12.538589 27.375454,12.538589c8.174509,0 16.051624,-3.736362 24.050747,-11.423029c9.562345,-9.191909 14.488402,-18.024699 14.62566,-26.276787c0.152509,-8.496594 -4.689667,-17.887165 -14.389271,-27.919564z" fill="100%" id="svg_1" stroke="#000" stroke-linecap="round" stroke-linejoin="round" stroke-width="16px" transform="rotate(-90, 255.496, 256.996)"/>
 
</svg>